<?xml version="1.0" ?><!DOCTYPE svg  PUBLIC '-//W3C//DTD SVG 1.1//EN'  'http://www.w3.org/Graphics/SVG/1.1/DTD/svg11.dtd'><svg enable-background="new 0 0 512 512" height="512px" version="1.1" viewBox="0 0 512 512" width="512px" xml:space="preserve" xmlns="http://www.w3.org/2000/svg" xmlns:xlink="http://www.w3.org/1999/xlink"><g id="Flat"><g><linearGradient gradientUnits="userSpaceOnUse" id="SVGID_1_" x1="74.998" x2="437.002" y1="256" y2="256"><stop offset="0.0176" style="stop-color:#662D91"/><stop offset="0.9953" style="stop-color:#DA1C5C"/></linearGradient><path d="M419.957,179.546c-20.422-43.794-56.676-77.015-102.083-93.542    c-19.973-7.27-40.786-10.955-61.86-10.955c-36.758,0-72.264,11.06-102.677,31.985c-31.099,21.397-54.382,51.513-67.333,87.094    c-16.527,45.407-14.382,94.533,6.04,138.328c20.422,43.794,56.676,77.015,102.083,93.542c19.973,7.27,40.786,10.955,61.86,10.955    c36.758,0,72.264-11.06,102.677-31.985c31.099-21.397,54.383-51.513,67.333-87.094    C442.523,272.466,440.378,223.34,419.957,179.546z" fill="url(#SVGID_1_)"/><g><linearGradient gradientUnits="userSpaceOnUse" id="SVGID_2_" x1="476.21" x2="18.9442" y1="443.79" y2="-13.4757"><stop offset="0.0061" style="stop-color:#F15A29"/><stop offset="0.9986" style="stop-color:#FBB040"/></linearGradient><path d="M451.124,345.464c-16.551-33.573-44.965-71.992-82.171-111.105     c-5.293-5.564-14.096-5.784-19.66-0.491c-5.564,5.293-5.785,14.095-0.491,19.66c34.791,36.574,62.271,73.592,77.376,104.234     c12.958,26.283,16.302,46.981,8.947,55.365c-7.363,8.393-28.344,7.764-56.127-1.681c-7.273-2.472-15.17,1.419-17.642,8.69     c-2.472,7.271,1.418,15.17,8.69,17.642c18.904,6.427,34.07,8.952,46.239,8.951c20.802-0.001,32.835-7.381,39.748-15.261     C475.87,408.854,464.312,372.217,451.124,345.464z" fill="url(#SVGID_2_)"/><linearGradient gradientUnits="userSpaceOnUse" id="SVGID_3_" x1="462.0312" x2="4.7655" y1="457.9688" y2="0.703"><stop offset="0.0061" style="stop-color:#F15A29"/><stop offset="0.9986" style="stop-color:#FBB040"/></linearGradient><path d="M235.963,122.619c-38.551-25.368-74.801-43.272-104.831-51.777     c-24.361-6.898-57.176-10.817-75.165,9.69c-19.438,22.159-8.65,57.784,3.822,83.768c2.392,4.983,7.365,7.892,12.546,7.892     c2.018,0,4.067-0.441,6.008-1.373c6.924-3.323,9.843-11.63,6.519-18.554c-12.141-25.293-15.127-45.253-7.987-53.392     c6.375-7.267,23.826-7.742,46.678-1.271c27.331,7.74,60.915,24.425,97.121,48.25c6.417,4.222,15.039,2.443,19.261-3.972     C244.157,135.464,242.378,126.841,235.963,122.619z" fill="url(#SVGID_3_)"/></g><linearGradient gradientUnits="userSpaceOnUse" id="SVGID_4_" x1="252.6538" x2="404.6538" y1="226.1096" y2="86.1096"><stop offset="0.0034" style="stop-color:#F15A29"/><stop offset="1" style="stop-color:#FBB040"/></linearGradient><circle cx="295.861" cy="186.313" fill="url(#SVGID_4_)" r="38.551"/></g></g></svg>