<svg height="512pt" viewBox="-56 0 512 512" width="512pt" xmlns="http://www.w3.org/2000/svg"><path d="m28.40625 219.773438 33.039062 262.15625c2.027344 17.148437 16.558594 30.066406 33.824219 30.066406h208.949219c17.265625 0 31.796875-12.921875 33.820312-30.066406l33.042969-262.15625zm0 0" fill="#ff4b4c"/><path d="m371.085938 219.773438-33.050782 262.152343c-2.015625 17.152344-16.554687 30.074219-33.820312 30.074219h-208.941406c-14.589844 0-27.222657-9.222656-32.015626-22.433594 2.113282.414063 4.292969.628906 6.515626.628906h208.9375c17.265624 0 31.804687-12.921874 33.824218-30.074218l30.292969-240.347656zm0 0" fill="#fe2b23"/><path d="m340.363281 25.929688c-3.285156-15.226563-15.273437-25.929688-29.046875-25.929688h-223.144531c-13.773437 0-25.765625 10.703125-29.050781 25.929688l-27.566406 127.769531h336.378906zm0 0" fill="#ff4b4c"/><path d="m367.941406 153.703125h-336.394531l4.816406-22.3125h283.882813c8.296875 0 14.480468-7.660156 12.730468-15.773437l-24.164062-112c-.265625-1.234376-.582031-2.445313-.976562-3.61328175h3.476562c13.769531 0 25.765625 10.69921875 29.050781 25.92968775zm0 0" fill="#fe2b23"/><path d="m378.964844 226.136719h-358.441406c-11.335938 0-20.523438-9.191407-20.523438-20.527344v-40.097656c0-11.335938 9.1875-20.523438 20.523438-20.523438h358.441406c11.332031 0 20.523437 9.1875 20.523437 20.523438v40.097656c0 11.335937-9.191406 20.527344-20.523437 20.527344zm0 0" fill="#9395a3"/><path d="m199.746094 0h-94.296875l8.65625 83.125c1.539062 14.746094 13.964843 25.945312 28.789062 25.945312h113.699219c14.824219 0 27.25-11.199218 28.789062-25.945312l8.65625-83.125zm0 0" fill="#fef1da"/><path d="m294.042969.00390625-8.660157 83.12109375c-1.539062 14.75-13.960937 25.949219-28.785156 25.949219h-24.441406c14.824219 0 27.246094-11.199219 28.785156-25.949219l8.660156-83.12109375zm0 0" fill="#fde6bf"/></svg>